<svg id="Text" xmlns="http://www.w3.org/2000/svg" width="813" height="154" viewBox="0 0 813 154">
  <defs>
    <style>
      .cls-1 {
        fill: #325a64;
        stroke: #325a64;
      }

      .cls-1, .cls-2 {
        stroke-linejoin: round;
        stroke-width: 2px;
        fill-rule: evenodd;
      }

      .cls-2 {
        fill: #02073e;
        stroke: #02073e;
      }
    </style>
  </defs>
  <path id="ISYE_NURSERY" data-name="ISYE NURSERY" class="cls-1" d="M39.024,73.47a17.829,17.829,0,0,1-2.924-.386,16.954,16.954,0,0,1-2.488-.643,3.6,3.6,0,0,1-1.8-1.489,4.313,4.313,0,0,1-.527-2.151V31.047a5.068,5.068,0,0,1,.472-2.206,2.871,2.871,0,0,1,1.852-1.434,18.365,18.365,0,0,1,2.724-.607,23.224,23.224,0,0,1,2.687-.276v-2.61H15.818v2.61a17.971,17.971,0,0,1,2.706.46,18.925,18.925,0,0,1,2.742.827,3.265,3.265,0,0,1,1.889,1.452,5.123,5.123,0,0,1,.4,2.151V69.206a4.149,4.149,0,0,1-.545,2.3,3.6,3.6,0,0,1-1.743,1.305,10.362,10.362,0,0,1-2.615.441Q16.8,73.4,15.818,73.47v2.61H39.024V73.47Zm57.34-24.152a36.827,36.827,0,0,0-4.195-2.169q-2.4-1.066-4.957-2A56.089,56.089,0,0,1,82,42.921a11.449,11.449,0,0,1-4.54-3.658A9.523,9.523,0,0,1,75.9,33.657a7.167,7.167,0,0,1,2.433-5.477,8.372,8.372,0,0,1,5.883-2.242,11.1,11.1,0,0,1,5.52,1.268,11.968,11.968,0,0,1,3.813,3.4,20.247,20.247,0,0,1,2.6,4.926q1,2.721,1.8,5.7h2.942L100.6,23.915H97.69l-1.489,2.5a30.223,30.223,0,0,0-5.139-2.573,17.358,17.358,0,0,0-6.373-1.1A16.812,16.812,0,0,0,78.7,23.823a15.428,15.428,0,0,0-4.975,2.995,14.443,14.443,0,0,0-3.414,4.594,12.978,12.978,0,0,0-1.2,5.549,13.623,13.623,0,0,0,2.415,8.4,17.113,17.113,0,0,0,6.773,5.2q2.215,1.025,5.266,2.179t5.411,2.1a10.762,10.762,0,0,1,5.193,4.1,10.572,10.572,0,0,1,1.743,5.834,11.6,11.6,0,0,1-.563,3.773,7.371,7.371,0,0,1-4.758,4.731,13.105,13.105,0,0,1-4.376.662,12.741,12.741,0,0,1-5.865-1.287,14.573,14.573,0,0,1-4.412-3.456,20.869,20.869,0,0,1-3.214-4.981A39.606,39.606,0,0,1,70.6,58.251H67.656l0.508,17.866H71.07l1.562-2.684a26.44,26.44,0,0,0,5.956,2.628,22.906,22.906,0,0,0,6.9,1.084,18.176,18.176,0,0,0,12.529-4.485,14.574,14.574,0,0,0,5.048-11.4,15.145,15.145,0,0,0-.781-5.091,12.219,12.219,0,0,0-2.415-4.026A15.81,15.81,0,0,0,96.364,49.318ZM176,23.915H158.086v2.61q1.053,0.11,2.288.2a11.775,11.775,0,0,1,2.288.385,4.468,4.468,0,0,1,1.634.807,1.678,1.678,0,0,1,.618,1.358q0,1.027-2.995,6.226T153.228,50q-2.864-5.219-4.638-8.471t-3.478-6.523q-0.581-1.139-1.233-2.37t-1.123-2.187q-0.4-.845-0.617-1.395a2.545,2.545,0,0,1-.218-0.77q0-.806,1.526-1.245a23.054,23.054,0,0,1,5.23-.513v-2.61H126.685v2.61a13.92,13.92,0,0,1,2.2.368,6.936,6.936,0,0,1,2.088.845,10.838,10.838,0,0,1,2.125,1.875,20.579,20.579,0,0,1,2.124,3.162q1.962,3.529,4.613,8.492t4.83,9.227q0.98,1.912,1.688,3.474a6.588,6.588,0,0,1,.709,2.151V68.8a5.111,5.111,0,0,1-.491,2.353,3.381,3.381,0,0,1-1.8,1.507,11.249,11.249,0,0,1-2.833.533q-2.034.2-3.051,0.276v2.61H163V73.47a18.4,18.4,0,0,1-3.16-.46,20.928,20.928,0,0,1-2.724-.717,3.709,3.709,0,0,1-1.8-1.562,4.751,4.751,0,0,1-.527-2.3V58.471a15.087,15.087,0,0,1,.436-4.154,19.894,19.894,0,0,1,1.779-3.787q3.6-6.4,5.993-10.551t5.229-8.2a22.14,22.14,0,0,1,1.961-2.5,13.8,13.8,0,0,1,1.925-1.36,7.21,7.21,0,0,1,1.925-.9,8.515,8.515,0,0,1,1.961-.5v-2.61Zm64.622,36.8a36.289,36.289,0,0,1-2.343,5.275,23.527,23.527,0,0,1-3.5,5.349,4.342,4.342,0,0,1-2.088,1.048,19.278,19.278,0,0,1-2.851.533,31.1,31.1,0,0,1-3.305.147h-3.16a40.528,40.528,0,0,1-4.648-.2,5.406,5.406,0,0,1-2.579-.9,3.445,3.445,0,0,1-1.271-2.055,16.546,16.546,0,0,1-.327-3.707V50.567h5.811a13.287,13.287,0,0,1,3.795.441,5.229,5.229,0,0,1,2.56,1.875,9.591,9.591,0,0,1,1.326,2.849,16.652,16.652,0,0,1,.781,3.731h2.724V39.024h-2.724a18.165,18.165,0,0,1-.745,3.364,9.521,9.521,0,0,1-1.362,2.849,5.6,5.6,0,0,1-2.269,1.783,11.479,11.479,0,0,1-4.086.533h-5.811V26.819h8.1q2,0,3.559.074t2.687,0.221q2.18,0.295,4.594,3.437a17.045,17.045,0,0,1,3.142,5.937h2.724V23.915H199.478v2.61a19.7,19.7,0,0,1,2.633.441,12.256,12.256,0,0,1,2.633.846,3.108,3.108,0,0,1,1.67,1.526,5.431,5.431,0,0,1,.4,2.151v37.5a4.892,4.892,0,0,1-.454,2.242,3.331,3.331,0,0,1-1.616,1.434,9.741,9.741,0,0,1-2.361.5q-1.817.239-2.905,0.312v2.61h42.781l0.981-15.366h-2.615Zm123.324-36.8H342.994v2.61a17.979,17.979,0,0,1,3.5.735,12.111,12.111,0,0,1,3.323,1.36,5.578,5.578,0,0,1,1.67,3.253,32.162,32.162,0,0,1,.581,7V63.684L323.107,23.915H308.384v2.61a12.515,12.515,0,0,1,3.614.937,10.989,10.989,0,0,1,3.541,2.077,6.322,6.322,0,0,1,1.561,2.61,10.363,10.363,0,0,1,.581,3.382v25.7a37.74,37.74,0,0,1-.472,7.224,5.4,5.4,0,0,1-1.743,3.143,8.707,8.707,0,0,1-2.905,1.158,20.07,20.07,0,0,1-3.305.717v2.61h21.136V73.47a20.892,20.892,0,0,1-3.45-.735,8.432,8.432,0,0,1-3.45-1.507,6.47,6.47,0,0,1-1.725-3.456,32.6,32.6,0,0,1-.563-6.948V33.914l31.232,42.681h3.16V38.4a39.717,39.717,0,0,1,.454-6.617,5.214,5.214,0,0,1,1.761-3.529,11.068,11.068,0,0,1,3.014-1.14,16.1,16.1,0,0,1,3.124-.588v-2.61Zm78.6,0H421.489v2.61a22.317,22.317,0,0,1,3.359.588,9.685,9.685,0,0,1,3.468,1.433,5.615,5.615,0,0,1,1.707,3.4,31.378,31.378,0,0,1,.581,6.666V59.989a15.9,15.9,0,0,1-.617,4.371,12.705,12.705,0,0,1-2.106,4.151,11.181,11.181,0,0,1-4.268,3.38,15.563,15.563,0,0,1-6.7,1.285,14.438,14.438,0,0,1-6.682-1.285,10.684,10.684,0,0,1-3.85-3.306,11.563,11.563,0,0,1-1.8-4.279,22.611,22.611,0,0,1-.454-4.39v-28.8a5.89,5.89,0,0,1,.418-2.241,2.605,2.605,0,0,1,1.652-1.469,16.934,16.934,0,0,1,2.27-.551,17.627,17.627,0,0,1,2.561-.331v-2.61H389.566v2.61a18.139,18.139,0,0,1,2.325.386,8.428,8.428,0,0,1,2.324.827,4.023,4.023,0,0,1,1.689,1.6,4.933,4.933,0,0,1,.417,2.151V62.331a13.428,13.428,0,0,0,1.235,5.643,13.968,13.968,0,0,0,3.668,4.8,18.488,18.488,0,0,0,6.1,3.327,25.735,25.735,0,0,0,8.281,1.231,23.2,23.2,0,0,0,6.083-.864,19.631,19.631,0,0,0,6.046-2.849,15.7,15.7,0,0,0,4.685-5.257,15.26,15.26,0,0,0,1.78-7.536V38.142a37.569,37.569,0,0,1,.472-6.47q0.471-2.647,1.707-3.492a9.218,9.218,0,0,1,3.195-1.213,19.659,19.659,0,0,1,2.978-.441v-2.61ZM519.2,73.47a17.362,17.362,0,0,1-2.361-.294,8.67,8.67,0,0,1-2.36-.735,15.207,15.207,0,0,1-2.56-1.709,17.4,17.4,0,0,1-2.888-3.254q-3.667-5-6.192-8.492t-6.337-8.6a29.538,29.538,0,0,0,5.048-1.967,15.936,15.936,0,0,0,3.922-2.739,11,11,0,0,0,2.688-4.007,14.538,14.538,0,0,0,.908-5.331,11.431,11.431,0,0,0-1.344-5.716,10.992,10.992,0,0,0-3.595-3.842A16.443,16.443,0,0,0,498.93,24.6a26.556,26.556,0,0,0-6.137-.68H469.005v2.61a22.29,22.29,0,0,1,2.47.349,15.605,15.605,0,0,1,2.361.607,2.681,2.681,0,0,1,1.706,1.507,6.615,6.615,0,0,1,.364,2.279V68.985a4.973,4.973,0,0,1-.491,2.353,3.137,3.137,0,0,1-1.579,1.4,8.586,8.586,0,0,1-2.307.478q-1.653.184-2.524,0.257v2.61H490.8V73.47q-1.125-.036-2.76-0.257a11.1,11.1,0,0,1-2.288-.478,2.818,2.818,0,0,1-1.706-1.489,5.91,5.91,0,0,1-.4-2.261V52.442h5.278q4.353,5.662,8.072,10.992t8.327,12.646H519.2V73.47ZM496.751,46.033a11.5,11.5,0,0,1-8.352,3.248h-4.758V26.93h6.174q4.9,0,7.59,2.771a10.321,10.321,0,0,1,2.688,7.506A11.739,11.739,0,0,1,496.751,46.033Zm75.317,3.285a36.718,36.718,0,0,0-4.194-2.169q-2.4-1.066-4.957-2a56.074,56.074,0,0,1-5.212-2.224,11.446,11.446,0,0,1-4.539-3.658,9.517,9.517,0,0,1-1.562-5.606,7.168,7.168,0,0,1,2.433-5.477,8.373,8.373,0,0,1,5.884-2.242,11.1,11.1,0,0,1,5.52,1.268,11.963,11.963,0,0,1,3.813,3.4,20.279,20.279,0,0,1,2.6,4.926q1,2.721,1.8,5.7h2.942L576.3,23.915h-2.9l-1.489,2.5a30.236,30.236,0,0,0-5.139-2.573,17.355,17.355,0,0,0-6.373-1.1,16.817,16.817,0,0,0-5.993,1.084,15.437,15.437,0,0,0-4.975,2.995,14.445,14.445,0,0,0-3.414,4.594,12.978,12.978,0,0,0-1.2,5.549,13.619,13.619,0,0,0,2.415,8.4,17.117,17.117,0,0,0,6.773,5.2q2.214,1.025,5.266,2.179t5.411,2.1a10.76,10.76,0,0,1,5.193,4.1,10.573,10.573,0,0,1,1.743,5.834,11.6,11.6,0,0,1-.562,3.773,7.37,7.37,0,0,1-4.758,4.731,13.1,13.1,0,0,1-4.376.662,12.738,12.738,0,0,1-5.865-1.287,14.581,14.581,0,0,1-4.413-3.456,20.9,20.9,0,0,1-3.214-4.981,39.662,39.662,0,0,1-2.124-5.974H543.36l0.509,17.866h2.9l1.562-2.684a26.429,26.429,0,0,0,5.955,2.628,22.91,22.91,0,0,0,6.9,1.084,18.176,18.176,0,0,0,12.529-4.485,14.575,14.575,0,0,0,5.048-11.4,15.145,15.145,0,0,0-.781-5.091,12.206,12.206,0,0,0-2.415-4.026A15.806,15.806,0,0,0,572.068,49.318Zm76.189,11.4a36.254,36.254,0,0,1-2.342,5.275,23.525,23.525,0,0,1-3.5,5.349,4.342,4.342,0,0,1-2.088,1.048,19.253,19.253,0,0,1-2.851.533,31.091,31.091,0,0,1-3.3.147h-3.159a40.559,40.559,0,0,1-4.649-.2,5.4,5.4,0,0,1-2.578-.9,3.445,3.445,0,0,1-1.271-2.055,16.546,16.546,0,0,1-.327-3.707V50.567h5.81a13.3,13.3,0,0,1,3.8.441,5.233,5.233,0,0,1,2.56,1.875,9.593,9.593,0,0,1,1.325,2.849,16.6,16.6,0,0,1,.781,3.731h2.724V39.024h-2.724a18.078,18.078,0,0,1-.744,3.364,9.57,9.57,0,0,1-1.362,2.849,5.61,5.61,0,0,1-2.27,1.783,11.479,11.479,0,0,1-4.086.533h-5.81V26.819h8.1q2,0,3.559.074t2.688,0.221q2.179,0.295,4.594,3.437a17.024,17.024,0,0,1,3.141,5.937h2.724V23.915H607.11v2.61a19.7,19.7,0,0,1,2.633.441,12.218,12.218,0,0,1,2.633.846,3.114,3.114,0,0,1,1.671,1.526,5.449,5.449,0,0,1,.4,2.151v37.5a4.879,4.879,0,0,1-.454,2.242,3.327,3.327,0,0,1-1.616,1.434,9.741,9.741,0,0,1-2.36.5q-1.817.239-2.906,0.312v2.61h42.781l0.981-15.366h-2.615ZM728.64,73.47a17.331,17.331,0,0,1-2.36-.294,8.677,8.677,0,0,1-2.361-.735,15.207,15.207,0,0,1-2.56-1.709,17.368,17.368,0,0,1-2.887-3.254q-3.669-5-6.192-8.492t-6.338-8.6a29.538,29.538,0,0,0,5.048-1.967,15.942,15.942,0,0,0,3.923-2.739,10.987,10.987,0,0,0,2.687-4.007,14.538,14.538,0,0,0,.908-5.331,11.42,11.42,0,0,0-1.344-5.716,10.992,10.992,0,0,0-3.6-3.842,16.447,16.447,0,0,0-5.193-2.187,26.571,26.571,0,0,0-6.138-.68H678.451v2.61a22.276,22.276,0,0,1,2.469.349,15.605,15.605,0,0,1,2.361.607,2.686,2.686,0,0,1,1.707,1.507,6.64,6.64,0,0,1,.363,2.279V68.985a4.985,4.985,0,0,1-.49,2.353,3.144,3.144,0,0,1-1.58,1.4,8.586,8.586,0,0,1-2.306.478q-1.653.184-2.524,0.257v2.61h21.79V73.47q-1.126-.036-2.76-0.257a11.087,11.087,0,0,1-2.288-.478,2.817,2.817,0,0,1-1.707-1.489,5.91,5.91,0,0,1-.4-2.261V52.442h5.279q4.353,5.662,8.072,10.992t8.326,12.646H728.64V73.47ZM706.2,46.033a11.505,11.505,0,0,1-8.353,3.248h-4.758V26.93h6.174q4.9,0,7.59,2.771a10.321,10.321,0,0,1,2.688,7.506A11.742,11.742,0,0,1,706.2,46.033Zm90.915-22.118H779.2v2.61q1.053,0.11,2.288.2a11.775,11.775,0,0,1,2.288.385,4.468,4.468,0,0,1,1.634.807,1.678,1.678,0,0,1,.618,1.358q0,1.027-3,6.226T774.337,50q-2.863-5.219-4.638-8.471t-3.479-6.523q-0.581-1.139-1.232-2.37t-1.123-2.187q-0.4-.845-0.617-1.395a2.545,2.545,0,0,1-.218-0.77q0-.806,1.526-1.245a23.046,23.046,0,0,1,5.23-.513v-2.61H747.794v2.61a13.938,13.938,0,0,1,2.2.368,6.936,6.936,0,0,1,2.088.845,10.838,10.838,0,0,1,2.125,1.875,20.579,20.579,0,0,1,2.124,3.162q1.962,3.529,4.612,8.492t4.83,9.227q0.981,1.912,1.689,3.474a6.578,6.578,0,0,1,.708,2.151V68.8a5.111,5.111,0,0,1-.49,2.353,3.38,3.38,0,0,1-1.8,1.507,11.239,11.239,0,0,1-2.832.533q-2.034.2-3.051,0.276v2.61H784.11V73.47a18.39,18.39,0,0,1-3.159-.46,20.882,20.882,0,0,1-2.724-.717,3.716,3.716,0,0,1-1.8-1.562,4.762,4.762,0,0,1-.526-2.3V58.471a15.087,15.087,0,0,1,.436-4.154,19.894,19.894,0,0,1,1.779-3.787q3.6-6.4,5.992-10.551t5.23-8.2a22.14,22.14,0,0,1,1.961-2.5,13.8,13.8,0,0,1,1.925-1.36,7.21,7.21,0,0,1,1.925-.9,8.515,8.515,0,0,1,1.961-.5v-2.61Z"/>
  <path id="LANDSCAPE_INDOOR_RENTAL" data-name="LANDSCAPE &amp; INDOOR RENTAL" class="cls-2" d="M85.138,124.416a14.665,14.665,0,0,1-1.1,2.228,13.109,13.109,0,0,1-1.387,2.051,1.483,1.483,0,0,1-.632.39,5.589,5.589,0,0,1-.937.243,9.375,9.375,0,0,1-1.1.117q-0.581.03-1.118,0.03a16.191,16.191,0,0,1-1.852-.081,1.978,1.978,0,0,1-1-.346,1.348,1.348,0,0,1-.443-0.831,9.2,9.2,0,0,1-.094-1.507V112.7a2.3,2.3,0,0,1,.182-0.912,1.088,1.088,0,0,1,.675-0.6,7.845,7.845,0,0,1,.937-0.235,6.744,6.744,0,0,1,1.053-.147v-1.044h-8.7V110.8a5.32,5.32,0,0,1,1,.2,4.924,4.924,0,0,1,.937.346,1.276,1.276,0,0,1,.661.617,2.192,2.192,0,0,1,.167.883v14.94a1.991,1.991,0,0,1-.2.941,1.261,1.261,0,0,1-.632.559,3.46,3.46,0,0,1-.922.191q-0.661.073-1.01,0.1v1.044h16.11l0.436-6.206H85.138Zm30.584,5.162a4.369,4.369,0,0,1-.9-0.155,3.215,3.215,0,0,1-.872-0.345,3.447,3.447,0,0,1-.77-0.691,3.579,3.579,0,0,1-.494-0.927l-6.871-18h-1.162q-1.467,3.823-3.341,8.719T97.884,127a5.471,5.471,0,0,1-.625,1.2,3.7,3.7,0,0,1-.9.831,3.047,3.047,0,0,1-.93.375,6.111,6.111,0,0,1-.944.169v1.044h7.764v-1.044a7.272,7.272,0,0,1-2.063-.383,1.079,1.079,0,0,1-.916-0.911,3.735,3.735,0,0,1,.073-0.647,10.171,10.171,0,0,1,.262-1.03q0.2-.647.458-1.411t0.662-1.794h7.236l1.707,4.676a1.528,1.528,0,0,1,.087.338,2.129,2.129,0,0,1,.029.324,0.824,0.824,0,0,1-.748.544,8.8,8.8,0,0,1-1.881.294v1.044h8.568v-1.044Zm-14.493-7.485,3.078-8.1,3.122,8.1h-6.2Zm45.31-12.337h-8.382V110.8a7.083,7.083,0,0,1,1.4.294,4.82,4.82,0,0,1,1.329.544,2.225,2.225,0,0,1,.669,1.3,12.92,12.92,0,0,1,.232,2.8v9.923L130.2,109.756h-5.89V110.8a4.961,4.961,0,0,1,1.446.375,4.391,4.391,0,0,1,1.416.83,2.531,2.531,0,0,1,.625,1.045,4.138,4.138,0,0,1,.232,1.352v10.279a15.079,15.079,0,0,1-.189,2.889,2.162,2.162,0,0,1-.7,1.258,3.478,3.478,0,0,1-1.162.463,8.041,8.041,0,0,1-1.322.287v1.044h8.455v-1.044a8.421,8.421,0,0,1-1.38-.294,3.384,3.384,0,0,1-1.38-.6,2.593,2.593,0,0,1-.69-1.383,12.988,12.988,0,0,1-.226-2.779V113.755l12.493,17.073H143.2V115.549a15.914,15.914,0,0,1,.182-2.647,2.088,2.088,0,0,1,.7-1.411,4.413,4.413,0,0,1,1.206-.456,6.452,6.452,0,0,1,1.249-.235v-1.044Zm29.306,5.573A8.98,8.98,0,0,0,173,111.9a10.848,10.848,0,0,0-3.138-1.566,11.836,11.836,0,0,0-3.66-.581h-9.007V110.8a7.979,7.979,0,0,1,.9.132,3.947,3.947,0,0,1,.973.324,1.253,1.253,0,0,1,.661.632,2.3,2.3,0,0,1,.167.9v15.058a1.928,1.928,0,0,1-.2.9,1.245,1.245,0,0,1-.632.566,3.436,3.436,0,0,1-.893.184,9.629,9.629,0,0,1-1.1.081v1.044h8.542A13.788,13.788,0,0,0,169.73,130a11.142,11.142,0,0,0,3.588-1.867,9.445,9.445,0,0,0,2.571-3.206,10.131,10.131,0,0,0,.988-4.617A11.259,11.259,0,0,0,175.845,115.329ZM172.9,124.06a8.257,8.257,0,0,1-1.315,2.858,5.838,5.838,0,0,1-2.237,1.837,7.384,7.384,0,0,1-3.225.661,4.325,4.325,0,0,1-2.368-.514,2.064,2.064,0,0,1-.77-1.852V111.02c0.242-.009.613-0.022,1.112-0.036s0.946-.023,1.343-0.023a7.5,7.5,0,0,1,3.247.691,7.125,7.125,0,0,1,2.462,1.895,8.781,8.781,0,0,1,1.613,2.961,12.242,12.242,0,0,1,.552,3.8A15.266,15.266,0,0,1,172.9,124.06Zm26.865-4.143a14.531,14.531,0,0,0-1.678-.868q-0.959-.426-1.982-0.8a22.514,22.514,0,0,1-2.085-.89,4.579,4.579,0,0,1-1.816-1.463,3.814,3.814,0,0,1-.624-2.243,2.867,2.867,0,0,1,.973-2.191,3.351,3.351,0,0,1,2.353-.9,4.44,4.44,0,0,1,2.208.508,4.776,4.776,0,0,1,1.525,1.36,8.085,8.085,0,0,1,1.039,1.97q0.4,1.089.719,2.28h1.177l-0.116-6.926H200.3l-0.595,1a12.069,12.069,0,0,0-2.056-1.03,6.941,6.941,0,0,0-2.549-.441,6.727,6.727,0,0,0-2.4.434,6.159,6.159,0,0,0-1.99,1.2,5.773,5.773,0,0,0-1.366,1.838,5.2,5.2,0,0,0-.479,2.219,5.448,5.448,0,0,0,.966,3.359,6.84,6.84,0,0,0,2.709,2.08q0.887,0.411,2.107.872t2.164,0.842a4.3,4.3,0,0,1,2.077,1.642,4.226,4.226,0,0,1,.7,2.333,4.644,4.644,0,0,1-.225,1.51,2.948,2.948,0,0,1-1.9,1.892,5.239,5.239,0,0,1-1.751.265,5.1,5.1,0,0,1-2.346-.515,5.834,5.834,0,0,1-1.765-1.382,8.369,8.369,0,0,1-1.286-1.993,15.888,15.888,0,0,1-.849-2.389h-1.177l0.2,7.146h1.162l0.625-1.073a10.557,10.557,0,0,0,2.382,1.051,9.168,9.168,0,0,0,2.761.434,7.27,7.27,0,0,0,5.011-1.794,5.829,5.829,0,0,0,2.019-4.558,6.056,6.056,0,0,0-.312-2.037,4.873,4.873,0,0,0-.966-1.61A6.3,6.3,0,0,0,199.769,119.917Zm28.169,9.874a9.093,9.093,0,0,0,3.309-4.434l-1.089-.529a8.188,8.188,0,0,1-.9,1.794,7.729,7.729,0,0,1-1.277,1.471,5.8,5.8,0,0,1-1.712.992,6.041,6.041,0,0,1-2.162.375,5.733,5.733,0,0,1-2.837-.706,6.91,6.91,0,0,1-2.2-1.958,9.529,9.529,0,0,1-1.43-2.935,12.781,12.781,0,0,1-.5-3.672,16.322,16.322,0,0,1,.478-4.106,9.307,9.307,0,0,1,1.321-3.032,5.993,5.993,0,0,1,2.1-1.869,5.584,5.584,0,0,1,2.619-.632,4.224,4.224,0,0,1,2.191.566,5.285,5.285,0,0,1,1.654,1.566,9.135,9.135,0,0,1,1.088,2.154,17.713,17.713,0,0,1,.7,2.36h1.191l-0.131-7.44h-1.162l-0.595,1a10.192,10.192,0,0,0-2.351-1.074,9.285,9.285,0,0,0-2.757-.382,9.406,9.406,0,0,0-3.846.8,9.157,9.157,0,0,0-3.121,2.251,10.674,10.674,0,0,0-2.089,3.509,12.974,12.974,0,0,0-.755,4.54,12.406,12.406,0,0,0,.769,4.5,10.334,10.334,0,0,0,2.061,3.377,9.059,9.059,0,0,0,3,2.119A9.337,9.337,0,0,0,227.938,129.791Zm33.269-.213a4.377,4.377,0,0,1-.9-0.155,3.207,3.207,0,0,1-.871-0.345,3.425,3.425,0,0,1-.77-0.691,3.549,3.549,0,0,1-.494-0.927l-6.871-18h-1.162q-1.469,3.823-3.342,8.719T243.368,127a5.449,5.449,0,0,1-.625,1.2,3.7,3.7,0,0,1-.9.831,3.044,3.044,0,0,1-.93.375,6.113,6.113,0,0,1-.944.169v1.044h7.763v-1.044a7.278,7.278,0,0,1-2.063-.383,1.078,1.078,0,0,1-.915-0.911,3.775,3.775,0,0,1,.072-0.647,10.336,10.336,0,0,1,.262-1.03q0.2-.647.459-1.411t0.662-1.794h7.235l1.708,4.676a1.647,1.647,0,0,1,.087.338,2.266,2.266,0,0,1,.029.324,0.825,0.825,0,0,1-.748.544,8.809,8.809,0,0,1-1.881.294v1.044h8.568v-1.044Zm-14.493-7.485,3.077-8.1,3.123,8.1h-6.2Zm38.141-10.933a7.36,7.36,0,0,0-4.671-1.4h-9.413V110.8q0.393,0.029.937,0.11a6.125,6.125,0,0,1,1.1.272,1.065,1.065,0,0,1,.683.618,2.79,2.79,0,0,1,.145.926v15.058a1.988,1.988,0,0,1-.2.941,1.264,1.264,0,0,1-.632.559,3.458,3.458,0,0,1-.923.191c-0.44.049-.777,0.083-1.009,0.1v1.044h8.847v-1.044a11.521,11.521,0,0,1-1.213-.1,4.535,4.535,0,0,1-.923-0.191,1.16,1.16,0,0,1-.69-0.6,2.285,2.285,0,0,1-.167-0.9v-6.323h2.31a10.046,10.046,0,0,0,2.8-.383,7.5,7.5,0,0,0,2.425-1.2,5.753,5.753,0,0,0,1.751-2.081,6.355,6.355,0,0,0,.632-2.89A4.513,4.513,0,0,0,284.855,111.16Zm-4.1,8.529a5.691,5.691,0,0,1-2.549.492h-1.482v-9.22h2.048a4.916,4.916,0,0,1,2.063.383,3.4,3.4,0,0,1,1.337,1.073,4.008,4.008,0,0,1,.675,1.515,7.7,7.7,0,0,1,.2,1.706,6.625,6.625,0,0,1-.16,1.36,3.972,3.972,0,0,1-.653,1.463A3.76,3.76,0,0,1,280.758,119.689Zm33.468,4.786a14.541,14.541,0,0,1-.937,2.11,9.388,9.388,0,0,1-1.4,2.14,1.737,1.737,0,0,1-.835.419,7.67,7.67,0,0,1-1.14.213,12.517,12.517,0,0,1-1.322.059h-1.264a16.139,16.139,0,0,1-1.859-.081,2.147,2.147,0,0,1-1.032-.36,1.374,1.374,0,0,1-.508-0.822,6.623,6.623,0,0,1-.131-1.482v-6.254h2.324a5.3,5.3,0,0,1,1.518.176,2.1,2.1,0,0,1,1.025.75,3.864,3.864,0,0,1,.53,1.14,6.677,6.677,0,0,1,.312,1.492h1.09V115.8h-1.09a7.291,7.291,0,0,1-.3,1.346,3.839,3.839,0,0,1-.544,1.139,2.248,2.248,0,0,1-.908.714,4.6,4.6,0,0,1-1.635.213H303.8v-8.294h3.24q0.8,0,1.423.03c0.416,0.02.775,0.049,1.075,0.088a3.11,3.11,0,0,1,1.838,1.375,6.813,6.813,0,0,1,1.256,2.375h1.09v-5.029h-15.95V110.8a7.743,7.743,0,0,1,1.053.176,4.928,4.928,0,0,1,1.053.338,1.246,1.246,0,0,1,.668.611,2.166,2.166,0,0,1,.16.86v15a1.958,1.958,0,0,1-.182.9,1.329,1.329,0,0,1-.646.573,3.889,3.889,0,0,1-.944.2q-0.728.1-1.162,0.125v1.044H314.88l0.392-6.147h-1.046ZM362.1,117.4h-7.772v1.044a11.637,11.637,0,0,1,1.867.522,0.861,0.861,0,0,1,.676.743,6.944,6.944,0,0,1-.536,2.448,18.1,18.1,0,0,1-1.506,2.963q-1.2-1.485-2.511-3.022t-2.67-3.4a10.073,10.073,0,0,0,2.977-2.286,4.544,4.544,0,0,0,1.079-3.037,4.26,4.26,0,0,0-.269-1.47,3.864,3.864,0,0,0-.777-1.294,4.07,4.07,0,0,0-1.431-.978,5.165,5.165,0,0,0-2.041-.375,6.073,6.073,0,0,0-1.947.323,4.862,4.862,0,0,0-1.627.9,4.481,4.481,0,0,0-1.125,1.478,4.291,4.291,0,0,0-.4,1.86,5.105,5.105,0,0,0,.654,2.574,27.39,27.39,0,0,0,1.83,2.72,11.679,11.679,0,0,0-3.552,3.139,5.975,5.975,0,0,0-.951,3.3,5.653,5.653,0,0,0,.523,2.529,5.067,5.067,0,0,0,1.365,1.735,5.687,5.687,0,0,0,1.932,1.007,7.433,7.433,0,0,0,2.136.316,5.77,5.77,0,0,0,1.794-.25,7.866,7.866,0,0,0,1.518-.691,8.115,8.115,0,0,0,1.3-.978q0.618-.566,1.1-1.095l2.164,2.5h5.985v-1.044a10.631,10.631,0,0,1-1.749-.265,5.883,5.883,0,0,1-1.647-.573,8.792,8.792,0,0,1-1.437-1.2A20.411,20.411,0,0,1,355.63,126a10.52,10.52,0,0,0,1.16-1.823q0.45-.912.885-1.853t0.746-1.632a4.385,4.385,0,0,1,.617-1.044,2.65,2.65,0,0,1,1.336-.86,8.1,8.1,0,0,1,1.729-.346V117.4Zm-10.928-1.419a6.221,6.221,0,0,1-2.148,1.846,17.561,17.561,0,0,1-1.625-2.508,4.519,4.519,0,0,1-.523-2.051,3.182,3.182,0,0,1,.131-0.838,2.657,2.657,0,0,1,1.187-1.588,2.106,2.106,0,0,1,1.13-.28,2.256,2.256,0,0,1,1.854.8,3.568,3.568,0,0,1,.652,2.3A4.1,4.1,0,0,1,351.175,115.983Zm0.113,12.632a5.027,5.027,0,0,1-2.085.463,3.767,3.767,0,0,1-3.014-1.316,4.926,4.926,0,0,1-1.126-3.316,6.254,6.254,0,0,1,.487-2.537,4.667,4.667,0,0,1,1.663-1.934q1.017,1.427,2.71,3.493t3.043,3.8A4.214,4.214,0,0,1,351.288,128.615Zm46.286,0.963a7.107,7.107,0,0,1-1.169-.155,6.716,6.716,0,0,1-.995-0.257,1.441,1.441,0,0,1-.719-0.6,1.718,1.718,0,0,1-.211-0.86v-15.1a2.028,2.028,0,0,1,.189-0.882,1.146,1.146,0,0,1,.741-0.573,7.355,7.355,0,0,1,1.089-.243,9.251,9.251,0,0,1,1.075-.11v-1.044h-9.282V110.8a7.084,7.084,0,0,1,1.082.184,7.546,7.546,0,0,1,1.1.33,1.307,1.307,0,0,1,.755.581,2.041,2.041,0,0,1,.16.86v15.117a1.663,1.663,0,0,1-.218.919,1.435,1.435,0,0,1-.7.522,4.134,4.134,0,0,1-1.046.176q-0.741.06-1.133,0.089v1.044h9.282v-1.044Zm32.662-19.822h-8.382V110.8a7.083,7.083,0,0,1,1.4.294,4.82,4.82,0,0,1,1.329.544,2.225,2.225,0,0,1,.668,1.3,12.845,12.845,0,0,1,.233,2.8v9.923L413.9,109.756H408.01V110.8a4.961,4.961,0,0,1,1.446.375,4.4,4.4,0,0,1,1.416.83,2.531,2.531,0,0,1,.625,1.045,4.165,4.165,0,0,1,.232,1.352v10.279a15.079,15.079,0,0,1-.189,2.889,2.162,2.162,0,0,1-.7,1.258,3.488,3.488,0,0,1-1.162.463,8.063,8.063,0,0,1-1.322.287v1.044h8.454v-1.044a8.464,8.464,0,0,1-1.38-.294,3.4,3.4,0,0,1-1.38-.6,2.593,2.593,0,0,1-.69-1.383,13.066,13.066,0,0,1-.225-2.779V113.755l12.493,17.073H426.9V115.549a15.807,15.807,0,0,1,.182-2.647,2.08,2.08,0,0,1,.7-1.411,4.413,4.413,0,0,1,1.206-.456,6.439,6.439,0,0,1,1.249-.235v-1.044Zm29.306,5.573A9,9,0,0,0,456.7,111.9a10.848,10.848,0,0,0-3.138-1.566,11.837,11.837,0,0,0-3.661-.581H440.89V110.8a7.979,7.979,0,0,1,.9.132,3.947,3.947,0,0,1,.973.324,1.257,1.257,0,0,1,.661.632,2.3,2.3,0,0,1,.167.9v15.058a1.928,1.928,0,0,1-.2.9,1.249,1.249,0,0,1-.632.566,3.436,3.436,0,0,1-.894.184,9.614,9.614,0,0,1-1.1.081v1.044h8.541a13.783,13.783,0,0,0,4.111-.618,11.137,11.137,0,0,0,3.589-1.867,9.445,9.445,0,0,0,2.571-3.206,10.131,10.131,0,0,0,.988-4.617A11.259,11.259,0,0,0,459.542,115.329ZM456.6,124.06a8.255,8.255,0,0,1-1.314,2.858,5.838,5.838,0,0,1-2.237,1.837,7.384,7.384,0,0,1-3.225.661,4.323,4.323,0,0,1-2.368-.514,2.064,2.064,0,0,1-.77-1.852V111.02c0.242-.009.612-0.022,1.111-0.036s0.947-.023,1.344-0.023a7.508,7.508,0,0,1,3.247.691,7.125,7.125,0,0,1,2.462,1.895,8.779,8.779,0,0,1,1.612,2.961,12.241,12.241,0,0,1,.553,3.8A15.263,15.263,0,0,1,456.6,124.06Zm28.951-14.025a9.865,9.865,0,0,0-7.649-.015,9.346,9.346,0,0,0-3.174,2.206,10.6,10.6,0,0,0-2.164,3.448,12.313,12.313,0,0,0-.785,4.537,12.541,12.541,0,0,0,.749,4.36,10.3,10.3,0,0,0,2.055,3.463,9.238,9.238,0,0,0,3.131,2.272,9.966,9.966,0,0,0,7.779.051,9.441,9.441,0,0,0,3.137-2.176,10.059,10.059,0,0,0,2.179-3.456,12.426,12.426,0,0,0,.785-4.514,12.662,12.662,0,0,0-.77-4.507,10.266,10.266,0,0,0-2.136-3.478A9.247,9.247,0,0,0,485.551,110.035Zm-1.061,19.043a5.423,5.423,0,0,1-2.8.735,5.361,5.361,0,0,1-2.848-.728,5.9,5.9,0,0,1-1.975-2.022,9.733,9.733,0,0,1-1.191-3.029,17.723,17.723,0,0,1-.378-3.823,18.063,18.063,0,0,1,.356-3.647,10.444,10.444,0,0,1,1.082-3.029,6.255,6.255,0,0,1,1.99-2.162,5.246,5.246,0,0,1,2.964-.809,5.4,5.4,0,0,1,2.76.7,5.843,5.843,0,0,1,2,1.948,9.833,9.833,0,0,1,1.213,3.059,19.215,19.215,0,0,1,.044,7.72,9.846,9.846,0,0,1-1.184,3.029A5.721,5.721,0,0,1,484.49,129.078Zm32.124-19.043a9.863,9.863,0,0,0-7.648-.015,9.336,9.336,0,0,0-3.174,2.206,10.6,10.6,0,0,0-2.164,3.448,12.313,12.313,0,0,0-.785,4.537,12.54,12.54,0,0,0,.748,4.36,10.32,10.32,0,0,0,2.056,3.463,9.234,9.234,0,0,0,3.13,2.272,9.966,9.966,0,0,0,7.779.051,9.445,9.445,0,0,0,3.138-2.176,10.059,10.059,0,0,0,2.179-3.456,12.426,12.426,0,0,0,.785-4.514,12.662,12.662,0,0,0-.77-4.507,10.282,10.282,0,0,0-2.136-3.478A9.241,9.241,0,0,0,516.614,110.035Zm-1.06,19.043a5.425,5.425,0,0,1-2.8.735,5.357,5.357,0,0,1-2.847-.728,5.889,5.889,0,0,1-1.975-2.022,9.758,9.758,0,0,1-1.192-3.029,17.726,17.726,0,0,1-.377-3.823,18.063,18.063,0,0,1,.356-3.647,10.415,10.415,0,0,1,1.082-3.029,6.245,6.245,0,0,1,1.99-2.162,5.243,5.243,0,0,1,2.963-.809,5.4,5.4,0,0,1,2.76.7,5.845,5.845,0,0,1,2,1.948,9.833,9.833,0,0,1,1.213,3.059,19.215,19.215,0,0,1,.044,7.72,9.846,9.846,0,0,1-1.184,3.029A5.721,5.721,0,0,1,515.554,129.078Zm38.69,0.5a6.961,6.961,0,0,1-.944-0.118,3.471,3.471,0,0,1-.944-0.294,6.066,6.066,0,0,1-1.024-.684,6.936,6.936,0,0,1-1.155-1.3q-1.467-2-2.477-3.4t-2.535-3.441a11.754,11.754,0,0,0,2.019-.787,6.378,6.378,0,0,0,1.569-1.095,4.387,4.387,0,0,0,1.075-1.6,5.816,5.816,0,0,0,.363-2.132,4.575,4.575,0,0,0-.537-2.287,4.4,4.4,0,0,0-1.438-1.536,6.566,6.566,0,0,0-2.078-.875,10.584,10.584,0,0,0-2.455-.272h-9.515V110.8a8.825,8.825,0,0,1,.988.139,6.361,6.361,0,0,1,.945.243,1.07,1.07,0,0,1,.682.6,2.644,2.644,0,0,1,.146.912v15.087a1.987,1.987,0,0,1-.2.941,1.258,1.258,0,0,1-.631.559,3.467,3.467,0,0,1-.923.191c-0.441.049-.777,0.083-1.01,0.1v1.044h8.716v-1.044q-0.45-.015-1.1-0.1a4.521,4.521,0,0,1-.915-0.191,1.134,1.134,0,0,1-.683-0.6,2.38,2.38,0,0,1-.159-0.9v-6.617h2.111q1.741,2.263,3.229,4.4t3.331,5.059h5.55v-1.044ZM545.267,118.6a4.6,4.6,0,0,1-3.341,1.3h-1.9v-8.941h2.469a4.033,4.033,0,0,1,3.036,1.109,4.128,4.128,0,0,1,1.075,3A4.7,4.7,0,0,1,545.267,118.6Zm54.879,10.975a6.973,6.973,0,0,1-.945-0.118,3.482,3.482,0,0,1-.944-0.294,6.107,6.107,0,0,1-1.024-.684,6.936,6.936,0,0,1-1.155-1.3q-1.467-2-2.477-3.4t-2.535-3.441a11.765,11.765,0,0,0,2.02-.787,6.378,6.378,0,0,0,1.569-1.095,4.412,4.412,0,0,0,1.075-1.6,5.836,5.836,0,0,0,.363-2.132,4.576,4.576,0,0,0-.538-2.287,4.4,4.4,0,0,0-1.438-1.536,6.56,6.56,0,0,0-2.077-.875,10.59,10.59,0,0,0-2.455-.272H580.07V110.8a8.857,8.857,0,0,1,.988.139,6.311,6.311,0,0,1,.944.243,1.072,1.072,0,0,1,.683.6,2.669,2.669,0,0,1,.145.912v15.087a2,2,0,0,1-.2.941,1.264,1.264,0,0,1-.632.559,3.458,3.458,0,0,1-.923.191c-0.44.049-.777,0.083-1.009,0.1v1.044h8.716v-1.044c-0.3-.01-0.668-0.044-1.1-0.1a4.489,4.489,0,0,1-.915-0.191,1.128,1.128,0,0,1-.683-0.6,2.361,2.361,0,0,1-.16-0.9v-6.617h2.111q1.742,2.263,3.229,4.4t3.331,5.059h5.551v-1.044ZM591.168,118.6a4.6,4.6,0,0,1-3.341,1.3h-1.9v-8.941h2.47a4.035,4.035,0,0,1,3.036,1.109,4.132,4.132,0,0,1,1.075,3A4.7,4.7,0,0,1,591.168,118.6Zm34.986,5.872a14.541,14.541,0,0,1-.937,2.11,9.388,9.388,0,0,1-1.4,2.14,1.737,1.737,0,0,1-.835.419,7.67,7.67,0,0,1-1.14.213,12.517,12.517,0,0,1-1.322.059h-1.264a16.139,16.139,0,0,1-1.859-.081,2.147,2.147,0,0,1-1.032-.36,1.374,1.374,0,0,1-.508-0.822,6.623,6.623,0,0,1-.131-1.482v-6.254h2.324a5.3,5.3,0,0,1,1.518.176,2.093,2.093,0,0,1,1.024.75,3.836,3.836,0,0,1,.531,1.14,6.677,6.677,0,0,1,.312,1.492h1.089V115.8h-1.089a7.291,7.291,0,0,1-.3,1.346,3.814,3.814,0,0,1-.545,1.139,2.238,2.238,0,0,1-.907.714,4.6,4.6,0,0,1-1.635.213h-2.324v-8.294h3.239q0.8,0,1.424.03c0.416,0.02.775,0.049,1.075,0.088a3.113,3.113,0,0,1,1.838,1.375,6.813,6.813,0,0,1,1.256,2.375h1.09v-5.029H609.7V110.8a7.728,7.728,0,0,1,1.054.176,4.928,4.928,0,0,1,1.053.338,1.246,1.246,0,0,1,.668.611,2.184,2.184,0,0,1,.16.86v15a1.958,1.958,0,0,1-.182.9,1.329,1.329,0,0,1-.646.573,3.889,3.889,0,0,1-.944.2q-0.727.1-1.163,0.125v1.044h17.113l0.392-6.147h-1.046Zm33.228-14.719H651V110.8a7.09,7.09,0,0,1,1.4.294,4.843,4.843,0,0,1,1.33.544,2.231,2.231,0,0,1,.668,1.3,12.856,12.856,0,0,1,.232,2.8v9.923l-11.586-15.907h-5.889V110.8a4.956,4.956,0,0,1,1.445.375,4.38,4.38,0,0,1,1.416.83,2.531,2.531,0,0,1,.625,1.045,4.138,4.138,0,0,1,.232,1.352v10.279a15.186,15.186,0,0,1-.188,2.889,2.162,2.162,0,0,1-.7,1.258,3.478,3.478,0,0,1-1.162.463,8.041,8.041,0,0,1-1.322.287v1.044h8.455v-1.044a8.421,8.421,0,0,1-1.38-.294,3.384,3.384,0,0,1-1.38-.6,2.593,2.593,0,0,1-.69-1.383,13,13,0,0,1-.225-2.779V113.755l12.492,17.073h1.264V115.549a15.914,15.914,0,0,1,.182-2.647,2.088,2.088,0,0,1,.7-1.411,4.413,4.413,0,0,1,1.206-.456,6.452,6.452,0,0,1,1.249-.235v-1.044Zm27.36,0h-17.97v5.661h1.017a8.517,8.517,0,0,1,.465-1.228,10.1,10.1,0,0,1,.77-1.4,7.742,7.742,0,0,1,.952-1.184,1.766,1.766,0,0,1,1-.581q0.609-.073,1.278-0.095t1.119-.022h0.842v16.822a1.8,1.8,0,0,1-.225.963,1.41,1.41,0,0,1-.705.551,4.7,4.7,0,0,1-1.155.221q-0.836.088-1.242,0.118v1.044h9.733v-1.044a8.059,8.059,0,0,1-1.3-.191,8.519,8.519,0,0,1-1.1-.28,1.354,1.354,0,0,1-.711-0.625,1.944,1.944,0,0,1-.2-0.889V110.9h0.845q0.582,0,1.266.029t1.136,0.088a1.892,1.892,0,0,1,1,.581,6.84,6.84,0,0,1,.954,1.184,11.171,11.171,0,0,1,.764,1.375,7.076,7.076,0,0,1,.474,1.257h1v-5.661Zm29.785,19.822a4.369,4.369,0,0,1-.9-0.155,3.215,3.215,0,0,1-.872-0.345,3.447,3.447,0,0,1-.77-0.691,3.579,3.579,0,0,1-.494-0.927l-6.871-18h-1.162q-1.467,3.823-3.341,8.719T698.689,127a5.492,5.492,0,0,1-.625,1.2,3.683,3.683,0,0,1-.9.831,3.048,3.048,0,0,1-.929.375,6.122,6.122,0,0,1-.945.169v1.044h7.763v-1.044a7.285,7.285,0,0,1-2.063-.383,1.078,1.078,0,0,1-.915-0.911,3.693,3.693,0,0,1,.073-0.647,10.336,10.336,0,0,1,.262-1.03q0.2-.647.458-1.411t0.662-1.794h7.236l1.707,4.676a1.528,1.528,0,0,1,.087.338,2.266,2.266,0,0,1,.029.324,0.824,0.824,0,0,1-.748.544,8.809,8.809,0,0,1-1.881.294v1.044h8.568v-1.044Zm-14.493-7.485,3.078-8.1,3.122,8.1h-6.2Zm39.674,2.323a14.707,14.707,0,0,1-1.1,2.228,13.118,13.118,0,0,1-1.387,2.051,1.489,1.489,0,0,1-.632.39,5.593,5.593,0,0,1-.937.243,9.387,9.387,0,0,1-1.1.117q-0.582.03-1.119,0.03a16.194,16.194,0,0,1-1.852-.081,1.979,1.979,0,0,1-1-.346,1.351,1.351,0,0,1-.443-0.831,9.217,9.217,0,0,1-.094-1.507V112.7a2.3,2.3,0,0,1,.181-0.912,1.088,1.088,0,0,1,.676-0.6,7.817,7.817,0,0,1,.937-0.235,6.732,6.732,0,0,1,1.053-.147v-1.044h-8.7V110.8a5.311,5.311,0,0,1,1,.2,4.9,4.9,0,0,1,.937.346,1.271,1.271,0,0,1,.661.617,2.18,2.18,0,0,1,.167.883v14.94a1.988,1.988,0,0,1-.2.941,1.256,1.256,0,0,1-.632.559,3.448,3.448,0,0,1-.922.191c-0.441.049-.777,0.083-1.01,0.1v1.044H742.3l0.436-6.206h-1.031Z"/>
</svg>
